<svg width="449" height="283" xmlns="http://www.w3.org/2000/svg" xmlns:xlink="http://www.w3.org/1999/xlink" overflow="hidden"><defs><clipPath id="clip0"><rect x="16" y="72" width="449" height="283"/></clipPath><linearGradient x1="225" y1="235" x2="465" y2="235" gradientUnits="userSpaceOnUse" spreadMethod="reflect" id="fill1"><stop offset="0" stop-color="#D2AA00"/><stop offset="0.0122727" stop-color="#D3AB01"/><stop offset="0.0245455" stop-color="#D5AD02"/><stop offset="0.0368182" stop-color="#D7AE03"/><stop offset="0.0490909" stop-color="#D9B005"/><stop offset="0.0613636" stop-color="#DBB206"/><stop offset="0.0736364" stop-color="#DCB307"/><stop offset="0.0859091" stop-color="#DEB508"/><stop offset="0.0981818" stop-color="#E0B609"/><stop offset="0.110455" stop-color="#E1B70A"/><stop offset="0.122727" stop-color="#E3B90B"/><stop offset="0.135" stop-color="#E4BA0C"/><stop offset="0.147273" stop-color="#E6BB0D"/><stop offset="0.159545" stop-color="#E7BD0E"/><stop offset="0.171818" stop-color="#E9BE0F"/><stop offset="0.184091" stop-color="#EABF10"/><stop offset="0.196364" stop-color="#EBC011"/><stop offset="0.208636" stop-color="#ECC112"/><stop offset="0.220909" stop-color="#EEC313"/><stop offset="0.233182" stop-color="#EFC414"/><stop offset="0.245455" stop-color="#F0C515"/><stop offset="0.257727" stop-color="#F1C615"/><stop offset="0.27" stop-color="#F2C716"/><stop offset="0.282273" stop-color="#F3C817"/><stop offset="0.294545" stop-color="#F4C817"/><stop offset="0.306818" stop-color="#F5C918"/><stop offset="0.319091" stop-color="#F6CA19"/><stop offset="0.331364" stop-color="#F7CB19"/><stop offset="0.343636" stop-color="#F8CB1A"/><stop offset="0.355909" stop-color="#F9CC1A"/><stop offset="0.368182" stop-color="#F9CD1B"/><stop offset="0.380455" stop-color="#FACD1B"/><stop offset="0.392727" stop-color="#FBCE1C"/><stop offset="0.405" stop-color="#FBCF1C"/><stop offset="0.417273" stop-color="#FCCF1D"/><stop offset="0.429545" stop-color="#FCCF1D"/><stop offset="0.441818" stop-color="#FDD01D"/><stop offset="0.454091" stop-color="#FDD01E"/><stop offset="0.466364" stop-color="#FDD11E"/><stop offset="0.478636" stop-color="#FED11E"/><stop offset="0.490909" stop-color="#FED11E"/><stop offset="0.503182" stop-color="#FED11E"/><stop offset="0.515455" stop-color="#FED11E"/><stop offset="0.527727" stop-color="#FED11E"/><stop offset="0.54" stop-color="#FFD21F"/><stop offset="0.550455" stop-color="#FED11E"/><stop offset="0.560909" stop-color="#FED11E"/><stop offset="0.571364" stop-color="#FED11E"/><stop offset="0.581818" stop-color="#FED11E"/><stop offset="0.592273" stop-color="#FED11E"/><stop offset="0.602727" stop-color="#FDD11E"/><stop offset="0.613182" stop-color="#FDD01E"/><stop offset="0.623636" stop-color="#FDD01D"/><stop offset="0.634091" stop-color="#FCCF1D"/><stop offset="0.644545" stop-color="#FCCF1D"/><stop offset="0.655" stop-color="#FBCF1C"/><stop offset="0.665455" stop-color="#FBCE1C"/><stop offset="0.675909" stop-color="#FACD1B"/><stop offset="0.686364" stop-color="#F9CD1B"/><stop offset="0.696818" stop-color="#F9CC1A"/><stop offset="0.707273" stop-color="#F8CB1A"/><stop offset="0.717727" stop-color="#F7CB19"/><stop offset="0.728182" stop-color="#F6CA19"/><stop offset="0.738636" stop-color="#F5C918"/><stop offset="0.749091" stop-color="#F4C817"/><stop offset="0.759545" stop-color="#F3C817"/><stop offset="0.77" stop-color="#F2C716"/><stop offset="0.780455" stop-color="#F1C615"/><stop offset="0.790909" stop-color="#F0C515"/><stop offset="0.801364" stop-color="#EFC414"/><stop offset="0.811818" stop-color="#EEC313"/><stop offset="0.822273" stop-color="#ECC112"/><stop offset="0.832727" stop-color="#EBC011"/><stop offset="0.843182" stop-color="#EABF10"/><stop offset="0.853636" stop-color="#E9BE0F"/><stop offset="0.864091" stop-color="#E7BD0E"/><stop offset="0.874545" stop-color="#E6BB0D"/><stop offset="0.885" stop-color="#E4BA0C"/><stop offset="0.895455" stop-color="#E3B90B"/><stop offset="0.905909" stop-color="#E1B70A"/><stop offset="0.916364" stop-color="#E0B609"/><stop offset="0.926818" stop-color="#DEB508"/><stop offset="0.937273" stop-color="#DCB307"/><stop offset="0.947727" stop-color="#DBB206"/><stop offset="0.958182" stop-color="#D9B005"/><stop offset="0.968636" stop-color="#D7AE03"/><stop offset="0.979091" stop-color="#D5AD02"/><stop offset="0.989545" stop-color="#D3AB01"/><stop offset="1" stop-color="#D2AA00"/></linearGradient><linearGradient x1="16" y1="205" x2="279" y2="205" gradientUnits="userSpaceOnUse" spreadMethod="reflect" id="fill2"><stop offset="0" stop-color="#D2AA00"/><stop offset="0.0122727" stop-color="#D3AB01"/><stop offset="0.0245455" stop-color="#D5AD02"/><stop offset="0.0368182" stop-color="#D7AE03"/><stop offset="0.0490909" stop-color="#D9B005"/><stop offset="0.0613636" stop-color="#DBB206"/><stop offset="0.0736364" stop-color="#DCB307"/><stop offset="0.0859091" stop-color="#DEB508"/><stop offset="0.0981818" stop-color="#E0B609"/><stop offset="0.110455" stop-color="#E1B70A"/><stop offset="0.122727" stop-color="#E3B90B"/><stop offset="0.135" stop-color="#E4BA0C"/><stop offset="0.147273" stop-color="#E6BB0D"/><stop offset="0.159545" stop-color="#E7BD0E"/><stop offset="0.171818" stop-color="#E9BE0F"/><stop offset="0.184091" stop-color="#EABF10"/><stop offset="0.196364" stop-color="#EBC011"/><stop offset="0.208636" stop-color="#ECC112"/><stop offset="0.220909" stop-color="#EEC313"/><stop offset="0.233182" stop-color="#EFC414"/><stop offset="0.245455" stop-color="#F0C515"/><stop offset="0.257727" stop-color="#F1C615"/><stop offset="0.27" stop-color="#F2C716"/><stop offset="0.282273" stop-color="#F3C817"/><stop offset="0.294545" stop-color="#F4C817"/><stop offset="0.306818" stop-color="#F5C918"/><stop offset="0.319091" stop-color="#F6CA19"/><stop offset="0.331364" stop-color="#F7CB19"/><stop offset="0.343636" stop-color="#F8CB1A"/><stop offset="0.355909" stop-color="#F9CC1A"/><stop offset="0.368182" stop-color="#F9CD1B"/><stop offset="0.380455" stop-color="#FACD1B"/><stop offset="0.392727" stop-color="#FBCE1C"/><stop offset="0.405" stop-color="#FBCF1C"/><stop offset="0.417273" stop-color="#FCCF1D"/><stop offset="0.429545" stop-color="#FCCF1D"/><stop offset="0.441818" stop-color="#FDD01D"/><stop offset="0.454091" stop-color="#FDD01E"/><stop offset="0.466364" stop-color="#FDD11E"/><stop offset="0.478636" stop-color="#FED11E"/><stop offset="0.490909" stop-color="#FED11E"/><stop offset="0.503182" stop-color="#FED11E"/><stop offset="0.515455" stop-color="#FED11E"/><stop offset="0.527727" stop-color="#FED11E"/><stop offset="0.54" stop-color="#FFD21F"/><stop offset="0.550455" stop-color="#FED11E"/><stop offset="0.560909" stop-color="#FED11E"/><stop offset="0.571364" stop-color="#FED11E"/><stop offset="0.581818" stop-color="#FED11E"/><stop offset="0.592273" stop-color="#FED11E"/><stop offset="0.602727" stop-color="#FDD11E"/><stop offset="0.613182" stop-color="#FDD01E"/><stop offset="0.623636" stop-color="#FDD01D"/><stop offset="0.634091" stop-color="#FCCF1D"/><stop offset="0.644545" stop-color="#FCCF1D"/><stop offset="0.655" stop-color="#FBCF1C"/><stop offset="0.665455" stop-color="#FBCE1C"/><stop offset="0.675909" stop-color="#FACD1B"/><stop offset="0.686364" stop-color="#F9CD1B"/><stop offset="0.696818" stop-color="#F9CC1A"/><stop offset="0.707273" stop-color="#F8CB1A"/><stop offset="0.717727" stop-color="#F7CB19"/><stop offset="0.728182" stop-color="#F6CA19"/><stop offset="0.738636" stop-color="#F5C918"/><stop offset="0.749091" stop-color="#F4C817"/><stop offset="0.759545" stop-color="#F3C817"/><stop offset="0.77" stop-color="#F2C716"/><stop offset="0.780455" stop-color="#F1C615"/><stop offset="0.790909" stop-color="#F0C515"/><stop offset="0.801364" stop-color="#EFC414"/><stop offset="0.811818" stop-color="#EEC313"/><stop offset="0.822273" stop-color="#ECC112"/><stop offset="0.832727" stop-color="#EBC011"/><stop offset="0.843182" stop-color="#EABF10"/><stop offset="0.853636" stop-color="#E9BE0F"/><stop offset="0.864091" stop-color="#E7BD0E"/><stop offset="0.874545" stop-color="#E6BB0D"/><stop offset="0.885" stop-color="#E4BA0C"/><stop offset="0.895455" stop-color="#E3B90B"/><stop offset="0.905909" stop-color="#E1B70A"/><stop offset="0.916364" stop-color="#E0B609"/><stop offset="0.926818" stop-color="#DEB508"/><stop offset="0.937273" stop-color="#DCB307"/><stop offset="0.947727" stop-color="#DBB206"/><stop offset="0.958182" stop-color="#D9B005"/><stop offset="0.968636" stop-color="#D7AE03"/><stop offset="0.979091" stop-color="#D5AD02"/><stop offset="0.989545" stop-color="#D3AB01"/><stop offset="1" stop-color="#D2AA00"/></linearGradient></defs><g clip-path="url(#clip0)" transform="translate(-16 -72)"><path d="M344.984 115C278.71 115 225 168.717 225 234.998 225 301.28 278.727 355 344.984 355 411.288 355 465 301.28 465 234.998 465 168.717 411.273 115 344.984 115ZM356.974 301.901 356.974 329.114 340.058 329.114 340.058 302.102C321.458 300.588 304.327 292.422 291.967 281.084L301.85 261.419C315.694 274.139 333.054 281.084 347.492 281.084 363.282 281.084 372.791 275.091 372.791 264.705 372.791 234.595 299.877 251.394 299.877 203.363 299.877 182.737 315.694 169.064 340.058 166.4L340.058 141.102 356.974 140.872 356.974 166.185C371.61 167.536 385.701 172.534 396.29 179.666L386.823 199.747C372.159 190.89 357.565 187.232 347.292 187.232 334.006 187.232 325.349 192.244 325.349 201.276 325.349 230.764 398.235 214.949 398.006 263.538 398.006 284.915 381.452 299.004 356.974 301.901Z" fill="url(#fill1)" fill-rule="evenodd"/><path d="M228.262 283.622C214.866 284.397 199.819 284.917 182.663 284.917 126.263 284.917 90.0271 279.77 74.7327 275.388 76.7926 274.81 79.282 274.202 82.0781 273.623 110.003 278.332 147.149 279.376 174.224 279.376 189.477 279.376 207.925 279.053 226.129 277.91 221.909 264.968 219.576 251.193 219.576 236.911 219.576 233.219 219.864 229.581 220.138 225.957 206.657 226.76 191.508 227.283 174.224 227.283 117.824 227.283 81.5882 222.136 66.2938 217.75 72.7154 215.945 83.0294 213.987 96.7235 212.338 124.437 216.792 160.471 217.794 186.941 217.794 197.269 217.794 209.049 217.625 221.204 217.186 224.157 197.716 231.244 179.627 241.743 163.853 226.331 164.981 208.07 165.699 186.941 165.699 142.235 165.699 110.451 162.455 91.4692 158.947 110.983 160.299 131.105 160.68 147.507 160.68 178.085 160.68 221.406 159.327 249.838 152.855 258.191 142.662 267.984 133.721 279 126.249L279 99.0823C279.018 76.3829 196.62 73 147.507 73 98.394 73 16 76.3829 16 99.0823L16 134.625C16 144.845 32.8227 151.148 55.722 154.969 55.6633 155.394 55.434 155.744 55.434 156.183L55.434 191.726C55.434 195.714 58.1119 199.069 62.5464 201.945 50.4784 205.726 42.7445 210.842 42.7445 217.75L42.7445 253.321C42.7445 258.906 47.7872 263.346 56.0803 266.814 53.0415 269.323 51.1834 272.131 51.1834 275.374L51.1834 310.945C51.1834 333.601 133.553 337 182.663 337 205.535 337 235.551 336.252 261.142 333.179 246.695 319.403 235.405 302.487 228.262 283.622ZM39.5769 99.0823C54.8854 94.6968 91.1073 89.5498 147.507 89.5498 203.906 89.5498 240.146 94.6968 255.44 99.0823 240.128 103.437 203.906 108.584 147.507 108.584 91.1073 108.584 54.8713 103.423 39.5769 99.0823Z" fill="url(#fill2)" fill-rule="evenodd"/></g></svg>